<svg id="Capa_1" enable-background="new 0 0 497 497" height="512" viewBox="0 0 497 497" width="512" xmlns="http://www.w3.org/2000/svg"><g><g><path d="m413.179 101.296c-4.143 0-7.5-3.358-7.5-7.5v-34.695c0-19.568-15.92-35.488-35.487-35.488-19.568 0-35.488 15.92-35.488 35.488v34.695c0 4.142-3.357 7.5-7.5 7.5s-7.5-3.358-7.5-7.5v-34.695c0-27.839 22.649-50.488 50.488-50.488s50.487 22.649 50.487 50.488v34.695c0 4.143-3.358 7.5-7.5 7.5z" fill="#7a6d79"/></g><path d="m455.12 249.126h-179.858v-165.329c0-5.523 4.477-10 10-10h159.858c5.523 0 10 4.477 10 10z" fill="#fe99a0"/><path d="m455.12 73.797h-30c5.523 0 10 4.477 10 10v165.329h30v-165.329c0-5.523-4.477-10-10-10z" fill="#fd8087"/><path d="m309.501 249.126h-139.813v-128.349c0-5.523 4.477-10 10-10h119.813c5.523 0 10 4.477 10 10z" fill="#fee97d"/><path d="m309.501 110.777h-30c5.523 0 10 4.477 10 10v128.349h30v-128.349c0-5.523-4.477-10-10-10z" fill="#fedf30"/><path d="m143.732 357.441h318.268c13.807 0 25-11.193 25-25v-154.521c0-5.523-4.477-10-10-10h-377.625z" fill="#ecf4fe"/><path d="m487 167.92h-30c5.523 0 10 4.477 10 10v154.521c0 13.807-11.193 25-25 25h30c13.807 0 25-11.193 25-25v-154.521c0-5.523-4.477-10-10-10z" fill="#d9ebfe"/><g><path d="m446.368 443.172h-292.508c-9.617 0-17.957-6.644-20.109-16.016l-66.967-291.739h-46.152c-11.395 0-20.632-9.238-20.632-20.632s9.237-20.632 20.632-20.632h62.584c9.617 0 17.957 6.644 20.109 16.016l66.967 291.739h276.076c11.395 0 20.632 9.237 20.632 20.632 0 11.394-9.237 20.632-20.632 20.632z" fill="#7acaa6"/></g><path d="m487 439.263c0 27.13-11.994 48.124-39.124 48.124-3.251 0-6.427.684-9.502.082-22.583-4.426-39.622-24.326-39.622-48.206s17.039-43.78 39.622-48.206c3.074-.603 6.251.082 9.502.082 27.13 0 39.124 20.993 39.124 48.124z" fill="#7a6d79"/><path d="m447.876 390.139c-3.251 0-6.426.324-9.5.927 22.583 4.426 39.624 24.317 39.624 48.197 0 23.879-17.041 43.771-39.624 48.197 3.074.603 6.249.927 9.5.927 27.13 0 49.124-21.994 49.124-49.124 0-27.131-21.994-49.124-49.124-49.124z" fill="#685e68"/><circle cx="447.876" cy="439.263" fill="#ecf4fe" r="16.084"/><path d="m194.508 439.263c0 27.13-11.994 48.124-39.124 48.124-3.251 0-6.428.684-9.502.082-22.583-4.426-39.622-24.326-39.622-48.206s17.039-43.78 39.622-48.206c3.074-.603 6.251.082 9.502.082 27.13 0 39.124 20.993 39.124 48.124z" fill="#7a6d79"/><path d="m155.384 390.139c-3.251 0-6.426.324-9.5.927 22.583 4.426 39.624 24.318 39.624 48.197s-17.041 43.771-39.624 48.197c3.074.603 6.249.927 9.5.927 27.13 0 49.124-21.994 49.124-49.124 0-27.131-21.994-49.124-49.124-49.124z" fill="#685e68"/><circle cx="155.384" cy="439.263" fill="#ecf4fe" r="16.084"/><g><path d="m400.48 240.51h-166.153c-4.143 0-7.5-3.358-7.5-7.5s3.357-7.5 7.5-7.5h166.153c4.142 0 7.5 3.358 7.5 7.5s-3.357 7.5-7.5 7.5z" fill="#7acaa6"/></g><g><path d="m380.48 299.851h-126.153c-4.143 0-7.5-3.358-7.5-7.5s3.357-7.5 7.5-7.5h126.153c4.142 0 7.5 3.358 7.5 7.5s-3.357 7.5-7.5 7.5z" fill="#7acaa6"/></g></g></svg>